<svg xmlns="http://www.w3.org/2000/svg" viewBox="0 0 64 64" width="64" height="64">
  <defs>
    <linearGradient id="bg" x1="0" y1="0" x2="1" y2="1">
      <stop offset="0" stop-color="#0b8a45"/>
      <stop offset="1" stop-color="#065f34"/>
    </linearGradient>
  </defs>
  <!-- Lingkaran latar -->
  <circle cx="32" cy="32" r="31" fill="url(#bg)"/>
  <circle cx="32" cy="32" r="30.2" fill="none" stroke="#f5b301" stroke-width="1.4" stroke-dasharray="4 3"/>
  <!-- Kubah masjid -->
  <path d="M20 26 Q32 8 44 26 Q38 23 32 23 Q26 23 20 26 Z" fill="#ffffff"/>
  <path d="M20 26 L44 26 L43.5 30 L20.5 30 Z" fill="#ffffff"/>
  <!-- Menara -->
  <rect x="15" y="24" width="3.4" height="10" rx="0.6" fill="#ffffff"/>
  <circle cx="16.7" cy="22.4" r="1.5" fill="#f5b301"/>
  <rect x="45.6" y="24" width="3.4" height="10" rx="0.6" fill="#ffffff"/>
  <circle cx="47.3" cy="22.4" r="1.5" fill="#f5b301"/>
  <!-- Pintu -->
  <path d="M28 34 L28 30 Q32 27.5 36 30 L36 34 Z" fill="#f5b301"/>
  <!-- Kitab terbuka -->
  <path d="M21 41 C24 39.5 27 39.5 32 42 C37 39.5 40 39.5 43 41 L43 45 C40 44.5 37 44.8 32 47 C27 44.8 24 44.5 21 45 Z" fill="#ffffff"/>
  <path d="M32 42 L32 46.4" stroke="#f5b301" stroke-width="1.2"/>
</svg>
